<svg xmlns="http://www.w3.org/2000/svg" viewBox="0 0 400 300" width="406" height="306" class="illustration styles_illustrationTablet__1DWOa"><g id="_478_online_research_outline" data-name="#478_online_research_outline"><path d="M285.57,96V198.8a9.09,9.09,0,0,1-9.22,9H123.65a9.33,9.33,0,0,1-6.72-2.83,8.72,8.72,0,0,1-2.5-6.13V96a9.09,9.09,0,0,1,9.22-9h152.7A9.09,9.09,0,0,1,285.57,96Z" fill="#68e1fd"></path><path d="M276.35,208.76H123.65a10.37,10.37,0,0,1-7.44-3.13,9.77,9.77,0,0,1-2.78-6.83V96a10.1,10.1,0,0,1,10.22-10h152.7a10.1,10.1,0,0,1,10.22,10V198.8A10.1,10.1,0,0,1,276.35,208.76ZM123.65,88a8.11,8.11,0,0,0-8.22,8V198.8a7.8,7.8,0,0,0,2.22,5.44,8.38,8.38,0,0,0,6,2.52h152.7a8.1,8.1,0,0,0,8.22-8V96a8.11,8.11,0,0,0-8.22-8Z" fill="#093f68"></path><polygon points="231.62 232.23 168.37 232.23 175.06 207.77 224.93 207.77 231.62 232.23" fill="#68e1fd"></polygon><path d="M231.62,233.23H168.37a1,1,0,0,1-1-1.26l6.69-24.47a1,1,0,0,1,1-.73h49.87a1,1,0,0,1,1,.73L232.59,232a1,1,0,0,1-1,1.26Zm-61.94-2h60.63l-6.14-22.46H175.82Z" fill="#093f68"></path><circle cx="200" cy="194.54" r="3.89" fill="#093f68"></circle><path d="M200,199.43a4.89,4.89,0,1,1,4.89-4.89A4.9,4.9,0,0,1,200,199.43Zm0-7.78a2.89,2.89,0,1,0,2.89,2.89A2.89,2.89,0,0,0,200,191.65Z" fill="#093f68"></path><path d="M285.57,95.53v87.3H114.43V95.53a9.09,9.09,0,0,1,9.22-9h152.7A9.09,9.09,0,0,1,285.57,95.53Z" fill="#093f68"></path><path d="M285.57,183.83H114.43a1,1,0,0,1-1-1V95.53a10.1,10.1,0,0,1,10.22-10h152.7a10.1,10.1,0,0,1,10.22,10v87.3A1,1,0,0,1,285.57,183.83Zm-170.14-2H284.57V95.53a8.1,8.1,0,0,0-8.22-8H123.65a8.1,8.1,0,0,0-8.22,8Z" fill="#093f68"></path><path d="M255,67.77H144.94a8.2,8.2,0,0,0-8.2,8.19v78.12a8.2,8.2,0,0,0,8.2,8.2h7.6V176.1l10.91-13.82H255a8.2,8.2,0,0,0,8.2-8.2V76A8.2,8.2,0,0,0,255,67.77Z" fill="#fff"></path><path d="M152.54,177.1a1,1,0,0,1-.33-.06,1,1,0,0,1-.67-.94V163.28h-6.6a9.21,9.21,0,0,1-9.2-9.2V76a9.21,9.21,0,0,1,9.2-9.19H255A9.2,9.2,0,0,1,264.2,76v78.12a9.21,9.21,0,0,1-9.2,9.2H163.94l-10.61,13.44A1,1,0,0,1,152.54,177.1Zm-7.6-108.33a7.21,7.21,0,0,0-7.2,7.19v78.12a7.21,7.21,0,0,0,7.2,7.2h7.6a1,1,0,0,1,1,1v10.94l9.13-11.56a1,1,0,0,1,.78-.38H255a7.21,7.21,0,0,0,7.2-7.2V76a7.21,7.21,0,0,0-7.2-7.19Z" fill="#093f68"></path><rect x="226.1" y="134.88" width="8.84" height="16.15" transform="translate(492.79 73.74) rotate(133.41)" fill="#68e1fd"></rect><path d="M233.35,152.71a1,1,0,0,1-.69-.27l-11.73-11.1a1,1,0,0,1-.31-.7,1,1,0,0,1,.27-.72L227,133.5a1,1,0,0,1,1.41,0l11.73,11.1a1,1,0,0,1,0,1.42l-6.07,6.42A1,1,0,0,1,233.35,152.71ZM223,140.57l10.28,9.73,4.7-5-10.28-9.73Z" fill="#093f68"></path><rect x="214.56" y="126.19" width="13.57" height="16.15" transform="translate(470.99 65.76) rotate(133.41)" fill="#68e1fd"></rect><path d="M222.54,145.74a1,1,0,0,1-.68-.27l-11.73-11.1a1,1,0,0,1,0-1.41l9.32-9.86a1,1,0,0,1,.7-.31,1,1,0,0,1,.72.27l11.73,11.1a1,1,0,0,1,0,1.41l-9.33,9.86a1,1,0,0,1-.7.31Zm-10.31-12.13,10.27,9.72,8-8.41-10.28-9.72Z" fill="#093f68"></path><rect x="241.39" y="141.16" width="13.57" height="36.99" rx="2.89" transform="translate(534.72 89.1) rotate(133.41)" fill="#68e1fd"></rect><path d="M256.83,177.1a3.92,3.92,0,0,1-2.67-1.06l-22.67-21.46a3.89,3.89,0,0,1-.15-5.5l5.35-5.65a3.87,3.87,0,0,1,2.72-1.22,3.93,3.93,0,0,1,2.78,1.06l22.67,21.46a3.88,3.88,0,0,1,.16,5.49l-5.36,5.66h0a3.85,3.85,0,0,1-2.72,1.22Zm2.11-1.9h0Zm-19.42-31h-.06a1.86,1.86,0,0,0-1.32.59l-5.35,5.66a1.89,1.89,0,0,0,.08,2.67l22.67,21.45a1.87,1.87,0,0,0,1.35.52,1.9,1.9,0,0,0,1.32-.59l5.35-5.66a1.89,1.89,0,0,0,.52-1.35,1.84,1.84,0,0,0-.59-1.32l-22.67-21.45A1.88,1.88,0,0,0,239.52,144.21Z" fill="#093f68"></path><path d="M221.64,90.64a31.9,31.9,0,1,0,1.25,45.09A31.89,31.89,0,0,0,221.64,90.64Z" fill="#68e1fd" stroke="#093f68" stroke-linecap="round" stroke-linejoin="round" stroke-width="2"></path><path d="M221.65,113.81a21.84,21.84,0,0,1-5.12,14.08,17.05,17.05,0,0,1-1.21,1.33,21.93,21.93,0,0,1-31.19,0,17.05,17.05,0,0,1-1.21-1.33,21.92,21.92,0,0,1,0-28.17,17.05,17.05,0,0,1,1.21-1.33,21.91,21.91,0,0,1,31.17,0,17.05,17.05,0,0,1,1.21,1.33A21.83,21.83,0,0,1,221.65,113.81Z" fill="#fff"></path><path d="M199.73,136.73a22.76,22.76,0,0,1-16.31-6.8,18.85,18.85,0,0,1-1.27-1.4,22.92,22.92,0,0,1,0-29.46c.39-.47.82-.95,1.26-1.39a22.91,22.91,0,0,1,32.59,0c.44.44.87.91,1.27,1.39a22.92,22.92,0,0,1,0,29.46,18.37,18.37,0,0,1-1.26,1.39A22.75,22.75,0,0,1,199.73,136.73Zm0-43.85a20.75,20.75,0,0,0-14.88,6.21,16.83,16.83,0,0,0-1.14,1.26,20.91,20.91,0,0,0,0,26.9,15.49,15.49,0,0,0,1.15,1.27,20.94,20.94,0,0,0,29.77,0q.6-.6,1.14-1.26a20.91,20.91,0,0,0,0-26.9c-.36-.44-.75-.86-1.14-1.26A20.75,20.75,0,0,0,199.73,92.88Z" fill="#093f68"></path><path d="M199.73,136.73a22.76,22.76,0,0,1-16.31-6.8,18.85,18.85,0,0,1-1.27-1.4,1,1,0,0,1,.15-1.42c.41-.32.82-.64,1.26-1a30.15,30.15,0,0,1,32.33,0c.44.31.85.63,1.26,1a1,1,0,0,1,.15,1.42,18.85,18.85,0,0,1-1.27,1.4A22.75,22.75,0,0,1,199.73,136.73ZM184.38,128l.46.48a20.94,20.94,0,0,0,29.77,0l.46-.48-.34-.25a28.18,28.18,0,0,0-30,0Z" fill="#093f68"></path><path d="M199.73,106.15a28.38,28.38,0,0,1-16.18-4.7c-.43-.3-.85-.62-1.26-1a1,1,0,0,1-.13-1.4c.4-.48.83-1,1.27-1.4a22.91,22.91,0,0,1,32.59,0c.44.44.87.91,1.27,1.39a1,1,0,0,1-.13,1.4c-.41.34-.83.67-1.26,1A28.37,28.37,0,0,1,199.73,106.15Zm-15.35-6.57.32.23a28.18,28.18,0,0,0,30.05,0l.32-.23-.46-.48a20.92,20.92,0,0,0-29.76,0Z" fill="#093f68"></path><path d="M199.72,136.74c-7.61,0-13.56-10.08-13.56-22.93s6-22.93,13.56-22.93,13.57,10.29,13.57,22.93C213.29,126.66,207.33,136.74,199.72,136.74Zm0-43.86c-6.38,0-11.56,9.39-11.56,20.93s5.18,20.93,11.56,20.93,11.57-9.39,11.57-20.93S206.1,92.88,199.72,92.88Z" fill="#093f68"></path><path d="M221.64,114.81H177.8a1,1,0,0,1,0-2h43.84a1,1,0,0,1,0,2Z" fill="#093f68"></path><path d="M199.72,136.74a1,1,0,0,1-1-1V91.88a1,1,0,0,1,2,0v43.86A1,1,0,0,1,199.72,136.74Z" fill="#093f68"></path><path d="M182.42,79.45H152.54a1,1,0,0,1,0-2h29.88a1,1,0,0,1,0,2Z" fill="#dfeaef"></path><path d="M161,92.88h-8.41a1,1,0,0,1,0-2H161a1,1,0,0,1,0,2Z" fill="#dfeaef"></path><path d="M172.55,150.18h-20a1,1,0,0,1,0-2h20a1,1,0,0,1,0,2Z" fill="#dfeaef"></path><path d="M250.29,81.48H228a1,1,0,0,1,0-2h22.33a1,1,0,0,1,0,2Z" fill="#dfeaef"></path><path d="M248.18,91.63H236.66a1,1,0,1,1,0-2h11.52a1,1,0,0,1,0,2Z" fill="#dfeaef"></path><path d="M248.18,101.78H236.66a1,1,0,0,1,0-2h11.52a1,1,0,0,1,0,2Z" fill="#dfeaef"></path><path d="M158.63,126.44h-6.09a1,1,0,0,1,0-2h6.09a1,1,0,0,1,0,2Z" fill="#dfeaef"></path><path d="M242.93,233.23H157.06a1,1,0,0,1,0-2h85.87a1,1,0,0,1,0,2Z" fill="#093f68"></path></g></svg>