<svg xmlns="http://www.w3.org/2000/svg" viewBox="0 0 400 300" width="406" height="306" class="illustration styles_illustrationTablet__1DWOa"><g id="_563_transferwise_flatline" data-name="#563_transferwise_flatline"><rect x="192.14" y="40.52" width="115.21" height="213.97" rx="12.06" fill="#fff"></rect><path d="M295.3,255H204.2a12.57,12.57,0,0,1-12.56-12.55V52.57A12.57,12.57,0,0,1,204.2,40h91.1a12.56,12.56,0,0,1,12.55,12.55V242.43A12.56,12.56,0,0,1,295.3,255ZM204.2,41a11.57,11.57,0,0,0-11.56,11.55V242.43A11.57,11.57,0,0,0,204.2,254h91.1a11.56,11.56,0,0,0,11.55-11.55V52.57A11.56,11.56,0,0,0,295.3,41Z" fill="#231f20"></path><rect x="197.8" y="53.98" width="103.9" height="179.74" fill="#fff"></rect><path d="M301.7,54V233.72H197.8V54H301.7m0-1H197.8a1,1,0,0,0-1,1V233.72a1,1,0,0,0,1,1H301.7a1,1,0,0,0,1-1V54a1,1,0,0,0-1-1Z" fill="#231f20"></path><rect x="197.8" y="53.98" width="103.9" height="47.18" fill="#68e1fd"></rect><rect x="205" y="62.27" width="68.41" height="30.81" rx="7.18" fill="#fff"></rect><path d="M266.23,93.58H212.18a7.69,7.69,0,0,1-7.68-7.68V69.45a7.69,7.69,0,0,1,7.68-7.68h54.05a7.69,7.69,0,0,1,7.68,7.68V85.9A7.69,7.69,0,0,1,266.23,93.58ZM212.18,62.77a6.69,6.69,0,0,0-6.68,6.68V85.9a6.69,6.69,0,0,0,6.68,6.68h54.05a6.69,6.69,0,0,0,6.68-6.68V69.45a6.69,6.69,0,0,0-6.68-6.68Z" fill="#231f20"></path><path d="M302.22,62.27V93.08h-16a7.19,7.19,0,0,1-7.18-7.19V69.45a7.19,7.19,0,0,1,7.18-7.18Z" fill="#fff"></path><path d="M302.22,93.58h-16a7.69,7.69,0,0,1-7.68-7.69V69.45a7.69,7.69,0,0,1,7.68-7.68h16a.5.5,0,0,1,.5.5V93.08A.5.5,0,0,1,302.22,93.58Zm-16-30.81a6.69,6.69,0,0,0-6.68,6.68V85.89a6.69,6.69,0,0,0,6.68,6.69h15.46V62.77Z" fill="#231f20"></path><path d="M221.72,86.23h-7.2a.5.5,0,0,1-.5-.5V81.35a.5.5,0,0,1,.5-.5h7.2a.51.51,0,0,1,.5.5v4.38A.51.51,0,0,1,221.72,86.23Zm-6.7-1h6.2V81.85H215Z" fill="#231f20"></path><path d="M246.49,84H225.92a.5.5,0,0,1,0-1h20.57a.5.5,0,0,1,0,1Z" fill="#231f20"></path><rect x="214.52" y="69.78" width="31.97" height="4.46" fill="#231f20"></rect><path d="M230.5,112.29H207.74a.51.51,0,0,1-.5-.5.5.5,0,0,1,.5-.5H230.5a.5.5,0,0,1,.5.5A.5.5,0,0,1,230.5,112.29Z" fill="#d1d3d4"></path><path d="M300.33,119.37H199.86a.5.5,0,0,1-.5-.5.5.5,0,0,1,.5-.5H300.33a.51.51,0,0,1,.5.5A.5.5,0,0,1,300.33,119.37Z" fill="#d1d3d4"></path><path d="M293.21,113a4.19,4.19,0,1,1,4.19-4.18A4.19,4.19,0,0,1,293.21,113Zm0-7.37a3.19,3.19,0,1,0,3.19,3.19A3.19,3.19,0,0,0,293.21,105.6Z" fill="#68e1fd"></path><path d="M287.72,115.54a.52.52,0,0,1-.33-.12.51.51,0,0,1,0-.71l2.93-3.26a.51.51,0,0,1,.71,0,.5.5,0,0,1,0,.71l-2.92,3.26A.51.51,0,0,1,287.72,115.54Z" fill="#68e1fd"></path><path d="M211.3,134.23a3.76,3.76,0,1,1,3.76-3.75A3.76,3.76,0,0,1,211.3,134.23Zm0-6.51a2.76,2.76,0,1,0,2.76,2.76A2.77,2.77,0,0,0,211.3,127.72Z" fill="#d1d3d4"></path><path d="M241.3,127.72H220a.5.5,0,0,1,0-1H241.3a.5.5,0,0,1,0,1Z" fill="#d1d3d4"></path><path d="M230.63,134.23H220a.5.5,0,0,1-.5-.5.5.5,0,0,1,.5-.5h10.67a.5.5,0,0,1,.5.5A.5.5,0,0,1,230.63,134.23Z" fill="#d1d3d4"></path><path d="M291.45,131h-19.8a.51.51,0,0,1-.5-.5.5.5,0,0,1,.5-.5h19.8a.5.5,0,0,1,.5.5A.5.5,0,0,1,291.45,131Z" fill="#d1d3d4"></path><path d="M294.33,142.52H205.17a.5.5,0,0,1,0-1h89.16a.5.5,0,0,1,0,1Z" fill="#d1d3d4"></path><path d="M211.3,160.12a3.76,3.76,0,1,1,3.76-3.76A3.77,3.77,0,0,1,211.3,160.12Zm0-6.52a2.76,2.76,0,1,0,2.76,2.76A2.77,2.77,0,0,0,211.3,153.6Z" fill="#d1d3d4"></path><path d="M241.3,153.6H220a.5.5,0,0,1-.5-.5.5.5,0,0,1,.5-.5H241.3a.5.5,0,0,1,.5.5A.5.5,0,0,1,241.3,153.6Z" fill="#d1d3d4"></path><path d="M230.63,160.12H220a.5.5,0,0,1,0-1h10.67a.5.5,0,0,1,0,1Z" fill="#d1d3d4"></path><path d="M291.45,156.86h-19.8a.5.5,0,0,1-.5-.5.51.51,0,0,1,.5-.5h19.8a.5.5,0,0,1,.5.5A.5.5,0,0,1,291.45,156.86Z" fill="#d1d3d4"></path><path d="M294.33,168.41H205.17a.51.51,0,0,1-.5-.5.5.5,0,0,1,.5-.5h89.16a.5.5,0,0,1,.5.5A.51.51,0,0,1,294.33,168.41Z" fill="#d1d3d4"></path><path d="M211.3,186a3.76,3.76,0,1,1,3.76-3.75A3.76,3.76,0,0,1,211.3,186Zm0-6.51a2.76,2.76,0,1,0,2.76,2.76A2.77,2.77,0,0,0,211.3,179.49Z" fill="#d1d3d4"></path><path d="M241.3,179.49H220a.5.5,0,0,1,0-1H241.3a.5.5,0,0,1,0,1Z" fill="#d1d3d4"></path><path d="M230.63,186H220a.5.5,0,0,1-.5-.5.5.5,0,0,1,.5-.5h10.67a.5.5,0,0,1,.5.5A.5.5,0,0,1,230.63,186Z" fill="#d1d3d4"></path><path d="M291.45,182.75h-19.8a.51.51,0,0,1-.5-.5.5.5,0,0,1,.5-.5h19.8a.5.5,0,0,1,.5.5A.5.5,0,0,1,291.45,182.75Z" fill="#d1d3d4"></path><path d="M294.33,194.29H205.17a.5.5,0,0,1,0-1h89.16a.5.5,0,0,1,0,1Z" fill="#d1d3d4"></path><path d="M211.3,211.89a3.76,3.76,0,1,1,3.76-3.76A3.77,3.77,0,0,1,211.3,211.89Zm0-6.51a2.76,2.76,0,1,0,2.76,2.75A2.76,2.76,0,0,0,211.3,205.38Z" fill="#d1d3d4"></path><path d="M241.3,205.38H220a.5.5,0,0,1-.5-.5.5.5,0,0,1,.5-.5H241.3a.5.5,0,0,1,.5.5A.5.5,0,0,1,241.3,205.38Z" fill="#d1d3d4"></path><path d="M230.63,211.89H220a.5.5,0,0,1,0-1h10.67a.5.5,0,0,1,0,1Z" fill="#d1d3d4"></path><path d="M291.45,208.63h-19.8a.5.5,0,0,1-.5-.5.51.51,0,0,1,.5-.5h19.8a.5.5,0,0,1,.5.5A.5.5,0,0,1,291.45,208.63Z" fill="#d1d3d4"></path><rect x="197.8" y="219.11" width="103.9" height="14.61" fill="#fff"></rect><path d="M301.7,219.11v14.61H197.8V219.11H301.7m0-1H197.8a1,1,0,0,0-1,1v14.61a1,1,0,0,0,1,1H301.7a1,1,0,0,0,1-1V219.11a1,1,0,0,0-1-1Z" fill="#231f20"></path><circle cx="249.75" cy="219.96" r="7.7" fill="#68e1fd"></circle><path d="M249.75,228.16A8.21,8.21,0,1,1,258,220,8.21,8.21,0,0,1,249.75,228.16Zm0-15.41A7.21,7.21,0,1,0,257,220,7.23,7.23,0,0,0,249.75,212.75Z" fill="#231f20"></path><rect x="205.73" y="222.99" width="8.79" height="6.86" rx="1.72" fill="#68e1fd"></rect><rect x="225.54" y="222.99" width="8.79" height="6.86" rx="1.72" fill="#68e1fd"></rect><rect x="265.17" y="222.99" width="8.79" height="6.86" rx="1.72" fill="#68e1fd"></rect><rect x="284.98" y="222.99" width="8.79" height="6.86" rx="1.72" fill="#68e1fd"></rect><path d="M247,224.51a1.51,1.51,0,1,1,1.51-1.51A1.52,1.52,0,0,1,247,224.51Zm0-2.27a.76.76,0,1,0,.76.76A.76.76,0,0,0,247,222.24Z" fill="#fff"></path><path d="M248.52,221.77a.34.34,0,0,1-.23-.08.38.38,0,0,1-.06-.53l4.6-5.62a.38.38,0,1,1,.58.48l-4.6,5.62A.36.36,0,0,1,248.52,221.77Z" fill="#fff"></path><path d="M253.12,218.33a.37.37,0,0,1-.37-.38v-1.72l-2.41.45a.38.38,0,0,1-.13-.74l2.84-.53a.39.39,0,0,1,.31.08.37.37,0,0,1,.14.29V218A.38.38,0,0,1,253.12,218.33Z" fill="#fff"></path><path d="M251.14,48.08H242.7a.5.5,0,0,1-.5-.5.5.5,0,0,1,.5-.5h8.44a.5.5,0,0,1,.5.5A.5.5,0,0,1,251.14,48.08Z" fill="#d1d3d4"></path><path d="M256.8,48.08H254a.5.5,0,0,1-.5-.5.5.5,0,0,1,.5-.5h2.83a.5.5,0,0,1,.5.5A.5.5,0,0,1,256.8,48.08Z" fill="#d1d3d4"></path><circle cx="249.75" cy="243.42" r="5.91" fill="#d1d3d4"></circle><path d="M103.45,103.42a5.23,5.23,0,0,0-1.84-4.18c-1.47-1-3.48-.67-5.17-.07a6.38,6.38,0,0,0-2.7,1.57c-1.66,1.83-1.13,4.7-.38,7.05a80.8,80.8,0,0,0,4.39,11,1.66,1.66,0,0,0,.68.85c.47.23,7.2-.91,7.73-.93,2.73-.12.49-2.36-.41-5.71-.36-1.3-1.37-2.43-1.81-3.72C103.27,107.37,103.55,105.44,103.45,103.42Z" fill="#fff"></path><path d="M98.74,120.21a1.2,1.2,0,0,1-.53-.08,2.13,2.13,0,0,1-.91-1.08,81.84,81.84,0,0,1-4.42-11.11c-.7-2.23-1.42-5.43.49-7.53a6.79,6.79,0,0,1,2.9-1.71c2.39-.85,4.28-.8,5.63.13a5.63,5.63,0,0,1,2,4.57h0c0,.58,0,1.15,0,1.71a12,12,0,0,0,.45,4.06,9,9,0,0,0,.82,1.64,9.46,9.46,0,0,1,1,2.11,18.5,18.5,0,0,0,1,2.69c.57,1.31,1,2.25.55,3a1.9,1.9,0,0,1-1.61.69c-.13,0-1,.13-1.77.25A52.67,52.67,0,0,1,98.74,120.21Zm.59-21.12a8.36,8.36,0,0,0-2.72.55,5.84,5.84,0,0,0-2.5,1.44c-1.56,1.72-.91,4.57-.28,6.56a81.11,81.11,0,0,0,4.37,11,1.25,1.25,0,0,0,.45.62c.41.06,3.93-.47,5.61-.72,1.14-.17,1.7-.25,1.88-.26.63,0,.77-.17.8-.22.16-.26-.25-1.2-.61-2a19.34,19.34,0,0,1-1.07-2.84,7.88,7.88,0,0,0-.89-1.86,11,11,0,0,1-.9-1.82,13.11,13.11,0,0,1-.5-4.39c0-.55,0-1.1,0-1.66h0c0-1-.32-2.88-1.62-3.79A3.46,3.46,0,0,0,99.33,99.09Z" fill="#231f20"></path><path d="M187,241.39c.14.46,4.69,8.05,4.69,8.05s5,1.49,8.73-1.77L196.53,238Z" fill="#fff"></path><path d="M194.44,250.29a11,11,0,0,1-2.9-.37.52.52,0,0,1-.28-.22c-1.38-2.3-4.6-7.7-4.75-8.17a.49.49,0,0,1,.31-.61l9.55-3.43a.5.5,0,0,1,.63.29l3.88,9.71a.5.5,0,0,1-.14.56A9.45,9.45,0,0,1,194.44,250.29ZM192,249c.87.2,4.74.94,7.8-1.49l-3.56-8.92-8.56,3.07C188.4,243,190.55,246.57,192,249Zm-5-7.62h0Z" fill="#231f20"></path><path d="M145.69,248.3l-12.18,8.8c.07,3.5,7.58,2.56,14.49.9s8.29-3.12,8.29-3.12l-.17-6Z" fill="#231f20"></path><path d="M138.18,260a7,7,0,0,1-4.22-1,2.4,2.4,0,0,1-1-1.9.51.51,0,0,1,.21-.41l12.18-8.8a.46.46,0,0,1,.32-.09l10.43.58a.48.48,0,0,1,.47.48l.16,6a.49.49,0,0,1-.13.36c-.16.16-1.69,1.6-8.54,3.25A45.12,45.12,0,0,1,138.18,260ZM134,257.34a1.34,1.34,0,0,0,.54.88c1.58,1.23,6.31,1,13.31-.71,5.45-1.31,7.39-2.49,7.9-2.86l-.14-5.3-9.8-.54Z" fill="#231f20"></path><path d="M155.75,238.59l.37,10.29s-6.08,2.73-10.43-.58l-1.89-12.1Z" fill="#fff"></path><path d="M150.94,250.45a9,9,0,0,1-5.55-1.75.51.51,0,0,1-.19-.32l-1.9-12.1a.5.5,0,0,1,.15-.44.49.49,0,0,1,.45-.13l11.95,2.39a.51.51,0,0,1,.4.48l.37,10.28a.48.48,0,0,1-.29.48A14.5,14.5,0,0,1,150.94,250.45ZM146.16,248c3.5,2.52,8.21,1,9.45.53l-.35-9.54-10.86-2.18Z" fill="#231f20"></path><path d="M138.11,164.55l33.88-6.7,27.12,83.53a13.36,13.36,0,0,1-13,2.12l-28.76-56.68.3,56.77c-6.18,2.9-14-.41-14-.41-5.37-16.91-9-78.72-9-78.72" fill="#231f20"></path><path d="M151.76,245.29a23.39,23.39,0,0,1-8.33-1.65.51.51,0,0,1-.28-.31c-5.33-16.78-9-78.22-9.05-78.84a.5.5,0,0,1,.47-.53.52.52,0,0,1,.53.47c0,.62,3.67,61.39,8.93,78.38,1.24.47,7.78,2.75,13.09.46l-.3-56.44a.5.5,0,0,1,.38-.49.51.51,0,0,1,.57.26l28.66,56.51a13,13,0,0,0,12.09-1.9l-26.87-82.79L138.2,165a.5.5,0,0,1-.19-1l33.88-6.7a.49.49,0,0,1,.57.33l27.12,83.54a.5.5,0,0,1-.16.54A14,14,0,0,1,185.88,244a.51.51,0,0,1-.25-.23l-27.8-54.8.28,54.66a.48.48,0,0,1-.28.45A14.19,14.19,0,0,1,151.76,245.29Z" fill="#231f20"></path><path d="M191.68,249.44s1.23,5.52,1.75,6.14S212,260.17,213,258.05s-12.56-10.38-12.56-10.38S195.49,250.14,191.68,249.44Z" fill="#231f20"></path><path d="M210.61,259.16c-5,0-16.91-2.47-17.57-3.26s-1.55-5-1.84-6.35a.49.49,0,0,1,.13-.46.48.48,0,0,1,.44-.14c3.6.66,8.37-1.7,8.42-1.72a.48.48,0,0,1,.48,0c12.55,7.67,13.1,10.25,12.75,11-.27.59-1,.76-1.61.83A8.34,8.34,0,0,1,210.61,259.16ZM192.33,250a32.41,32.41,0,0,0,1.48,5.24,75.62,75.62,0,0,0,9.44,2.11c6.8,1.15,9,.81,9.27.46.41-.9-5.24-5.36-12.14-9.6C199.38,248.71,195.64,250.32,192.33,250Z" fill="#231f20"></path><path d="M148.72,109.61l-11.41,4.26s-5.72,41.28-4.08,53.45c0,0,32.91,1.85,43.23-3.84,0,0-5.87-30.7-4.81-36.39a92.09,92.09,0,0,0,1.22-12.22l-13.81-5Z" fill="#68e1fd"></path><path d="M196,107.24a9.37,9.37,0,0,0,.3-3.17c-.2-1.44.17-4.48-.2-5.58s-4.4-4.35-4.1-4.95a2.12,2.12,0,0,1,2.47-.64c.88.43,4.19,4,4.19,4,3.32-1.8,6.66-3.38,9.91-5.28a5.48,5.48,0,0,1,1.17-.56,4.47,4.47,0,0,1,1.59-.1,3.3,3.3,0,0,1,1.61.45c1.62,1.13-1.59,4-2.39,5.07a31.49,31.49,0,0,0-3.09,4.29c-.67,1.28-1.79,4.22-2.94,4.93a9.67,9.67,0,0,1-1.86.94L201.49,109Z" fill="#fff"></path><path d="M201.49,109.46l-.15,0-5.52-1.73a.49.49,0,0,1-.33-.61,8.9,8.9,0,0,0,.28-3,17.25,17.25,0,0,1,0-2.55,12.49,12.49,0,0,0-.13-2.93,12.72,12.72,0,0,0-2-2.3c-1.69-1.7-2.36-2.42-2.05-3a2.6,2.6,0,0,1,3.13-.87,29.42,29.42,0,0,1,4.07,3.78c1.2-.64,2.4-1.26,3.6-1.87,2-1,4-2.07,6-3.21a5.83,5.83,0,0,1,1.28-.61,5.13,5.13,0,0,1,1.77-.11,3.57,3.57,0,0,1,1.86.53,1.49,1.49,0,0,1,.65,1.06c.14,1.27-1.27,2.85-2.3,4-.26.29-.49.54-.63.72l-.83,1.06a20.08,20.08,0,0,0-2.22,3.16c-.15.29-.33.66-.52,1.08-.7,1.52-1.58,3.42-2.59,4A11,11,0,0,1,203,107l-1.05,2.18A.52.52,0,0,1,201.49,109.46Zm-4.92-2.56,4.66,1.45,1-2a.49.49,0,0,1,.29-.26,9.13,9.13,0,0,0,1.76-.89c.76-.47,1.64-2.37,2.22-3.62.2-.43.38-.82.53-1.12a21.18,21.18,0,0,1,2.33-3.33c.28-.34.55-.69.82-1a10.24,10.24,0,0,1,.67-.79c.75-.84,2.15-2.39,2-3.21a.46.46,0,0,0-.23-.36,2.79,2.79,0,0,0-1.35-.36,4.22,4.22,0,0,0-1.42.08,5.47,5.47,0,0,0-1.06.52c-2,1.15-4,2.21-6,3.23-1.3.67-2.61,1.34-3.91,2a.5.5,0,0,1-.6-.1,33.6,33.6,0,0,0-4-3.84,1.75,1.75,0,0,0-1.73.3,16.34,16.34,0,0,0,1.79,2,10.3,10.3,0,0,1,2.26,2.69,12,12,0,0,1,.18,3.27,16.73,16.73,0,0,0,0,2.4A8.87,8.87,0,0,1,196.57,106.9Z" fill="#231f20"></path><path d="M202.17,96.43a15.55,15.55,0,0,1,5.47,1.86" fill="#fff"></path><path d="M207.64,98.79a.53.53,0,0,1-.27-.08,15,15,0,0,0-5.27-1.78.5.5,0,0,1-.43-.56.5.5,0,0,1,.56-.43,16,16,0,0,1,5.69,1.93.5.5,0,0,1,.14.69A.48.48,0,0,1,207.64,98.79Z" fill="#231f20"></path><line x1="203.75" y1="96.75" x2="209.54" y2="92.22" fill="#fff"></line><path d="M203.75,97.25a.5.5,0,0,1-.39-.2.5.5,0,0,1,.09-.7l5.78-4.53a.5.5,0,1,1,.61.79l-5.78,4.53A.51.51,0,0,1,203.75,97.25Z" fill="#231f20"></path><line x1="206.11" y1="97.5" x2="211.75" y2="92.12" fill="#fff"></line><path d="M206.11,98a.49.49,0,0,1-.37-.16.49.49,0,0,1,0-.7l5.65-5.38a.48.48,0,0,1,.7,0,.5.5,0,0,1,0,.71l-5.65,5.38A.51.51,0,0,1,206.11,98Z" fill="#231f20"></path><path d="M198.63,96.86s2.89,3.47,2.23,6.16" fill="#fff"></path><path d="M200.86,103.52l-.13,0a.49.49,0,0,1-.36-.6c.6-2.42-2.09-5.69-2.12-5.72a.5.5,0,1,1,.77-.64c.12.15,3,3.69,2.32,6.6A.5.5,0,0,1,200.86,103.52Z" fill="#231f20"></path><path d="M137.31,113.87,115.41,126l-10-17.57-11,5.23s2.92,20.6,6.28,26.48,28.58-1.64,38.24-9.48Z" fill="#68e1fd"></path><path d="M172.87,114.87l13.54,6.32,8.77-16.48,9.76,2.54s-6.32,28.86-13.33,28.38-32.27-8.89-32.27-8.89Z" fill="#68e1fd"></path><path d="M133.07,156.54a.5.5,0,0,1-.5-.5c-.13-11,3.58-35.56,3.62-35.81a.5.5,0,0,1,.57-.42.51.51,0,0,1,.42.57c0,.25-3.74,24.75-3.61,35.65a.51.51,0,0,1-.5.51Z" fill="#231f20"></path><path d="M191.61,136.13h0c-4.53-.07-27-7.16-28-7.47a.49.49,0,0,1-.32-.62.49.49,0,0,1,.62-.33c.24.07,23.3,7.36,27.69,7.42a.5.5,0,0,1,0,1Z" fill="#231f20"></path><path d="M183.49,127.46a.46.46,0,0,1-.23-.06.49.49,0,0,1-.21-.67l10-19.16a.5.5,0,0,1,.68-.21.51.51,0,0,1,.21.67l-10,19.16A.5.5,0,0,1,183.49,127.46Z" fill="#231f20"></path><path d="M93.47,116h-.12a.51.51,0,0,1-.37-.61l18.73-74.79a.5.5,0,0,1,.6-.37.51.51,0,0,1,.37.61L94,115.62A.49.49,0,0,1,93.47,116Z" fill="#231f20"></path><path d="M100.42,98.73c-1.45-.89-3.33,0-4.67,1a3.27,3.27,0,0,0-1,1.14,1.22,1.22,0,0,0,.25,1.41,1.82,1.82,0,0,0,1.6.08l3.26-.87a9.17,9.17,0,0,0-1.62,3.39,3.51,3.51,0,0,0,0,2.08,1.6,1.6,0,0,0,1.64,1.07" fill="#fff"></path><path d="M99.65,108.58a2.15,2.15,0,0,1-1.89-1.41,4.11,4.11,0,0,1,0-2.38,9.93,9.93,0,0,1,1-2.45l-2,.53a2.29,2.29,0,0,1-2-.17,1.69,1.69,0,0,1-.39-2,3.73,3.73,0,0,1,1.16-1.34c.93-.72,3.29-2.27,5.24-1.06a.49.49,0,0,1,.16.69.48.48,0,0,1-.68.16c-1.43-.87-3.34.41-4.1,1a2.82,2.82,0,0,0-.87.95.75.75,0,0,0,.1.82,1.45,1.45,0,0,0,1.16,0l3.26-.86a.47.47,0,0,1,.54.2.5.5,0,0,1,0,.58A8.81,8.81,0,0,0,98.71,105a3,3,0,0,0,0,1.78,1.1,1.1,0,0,0,1.08.76.5.5,0,0,1,.17,1Z" fill="#231f20"></path><path d="M111.54,43.3s11.91,6.84,44.15,6.54l-2.94,22.51s-23.64,1.52-47.09-5.54a25.79,25.79,0,0,0,6.2-9.25C114,51.88,111.54,43.3,111.54,43.3Z" fill="#fff"></path><path d="M147.17,73c-8.44,0-25.17-.73-41.66-5.7a.5.5,0,0,1-.18-.85,25.64,25.64,0,0,0,6.06-9c2.08-5.46-.31-13.87-.33-14a.49.49,0,0,1,.17-.53.5.5,0,0,1,.56,0c.12.07,12.24,6.78,43.89,6.47a.4.4,0,0,1,.38.17.54.54,0,0,1,.13.4l-2.94,22.51a.5.5,0,0,1-.47.43C152.71,72.86,150.64,73,147.17,73Zm-40.55-6.41c21.17,6.19,42.49,5.46,45.69,5.31l2.81-21.53c-26.84.18-39.37-4.52-42.82-6.11.59,2.51,1.79,8.87,0,13.5A26.43,26.43,0,0,1,106.62,66.57Z" fill="#231f20"></path><path d="M136.82,54.53l-6.66-.79c.33.72.61,1.38,1,2a.59.59,0,0,1-.22.89c-.75.56-1.46,1.17-2.31,1.86l4,.48c-.31.49-.55.91-.83,1.31a.43.43,0,0,1-.36.15l-6.73-.79.51-.45c1.2-.94,2.39-1.89,3.6-2.82a.52.52,0,0,0,.19-.77c-.5-1.08-1-2.18-1.45-3.28-.07-.16-.13-.33-.22-.55l12.27,1.45c-.09.19-.15.35-.24.5-2.58,4.6-5.18,9.19-7.75,13.8a.65.65,0,0,1-.78.39c-.44-.08-.89-.11-1.43-.18Z" fill="#68e1fd"></path><path d="M145.1,93.47a2.18,2.18,0,0,0-1.62-.86,1.14,1.14,0,0,0-.78.27,1.62,1.62,0,0,0-.42.94,6.63,6.63,0,0,0,0,2.84,4.4,4.4,0,0,0,1.45,2.41c.82.65,1.95.8,2.4-.33A5.13,5.13,0,0,0,145.1,93.47Z" fill="#fff"></path><path d="M145,100.07a2.58,2.58,0,0,1-1.58-.61,4.9,4.9,0,0,1-1.63-2.68,7.26,7.26,0,0,1,0-3,2,2,0,0,1,.57-1.22,1.63,1.63,0,0,1,1.12-.4h0a2.67,2.67,0,0,1,2,1h0a5.66,5.66,0,0,1,1.13,5.78,1.71,1.71,0,0,1-1.16,1.09A1.61,1.61,0,0,1,145,100.07Zm-1.54-7h0a.67.67,0,0,0-.45.14,1.24,1.24,0,0,0-.26.66,6.32,6.32,0,0,0,0,2.64,4,4,0,0,0,1.29,2.13,1.37,1.37,0,0,0,1.13.37.74.74,0,0,0,.49-.5,4.7,4.7,0,0,0-1-4.76h0A1.71,1.71,0,0,0,143.48,93.11Z" fill="#231f20"></path><path d="M164.19,97.69c2-2.24,3-6.53,2.71-9.27-.32-3.22-3.36-7.85-7.2-6.18a2.15,2.15,0,0,1-.91.28c-.48,0-.83-.43-1.18-.77-1.69-1.62-4.36-1.68-6.65-1.16a11.73,11.73,0,0,0-6.71,3.9,7.77,7.77,0,0,0-1.68,4.8c0,1.57.83,2.8,1,4.33.27,2.48,0,6.24,2.82,7.42,3.19,1.36,7.82-.08,11.05-.69,1.89-.35,4.67-.85,6.19-2.11A5.8,5.8,0,0,0,164.19,97.69Z" fill="#fff"></path><path d="M149.59,102.1a8.55,8.55,0,0,1-3.39-.6c-2.63-1.11-2.85-4.15-3-6.59,0-.43-.07-.85-.11-1.24a9.09,9.09,0,0,0-.46-1.83,8.2,8.2,0,0,1-.54-2.54,8.31,8.31,0,0,1,1.79-5.12,12.24,12.24,0,0,1,7-4.08c1.74-.39,5-.75,7.11,1.29l.14.14c.25.25.49.48.71.49a1.64,1.64,0,0,0,.52-.17l.17-.07a4.38,4.38,0,0,1,4.1.25,8.87,8.87,0,0,1,3.8,6.35c.29,2.89-.69,7.29-2.84,9.65h0a5.67,5.67,0,0,1-.61.59c-1.57,1.31-4.27,1.82-6.24,2.19l-.18,0-1.79.38A30.2,30.2,0,0,1,149.59,102.1Zm3.81-21.3a11.38,11.38,0,0,0-2.33.27,11.24,11.24,0,0,0-6.42,3.73,7.27,7.27,0,0,0-1.58,4.49,7.2,7.2,0,0,0,.49,2.23,10.5,10.5,0,0,1,.51,2c0,.4.07.83.1,1.28.17,2.28.36,4.87,2.42,5.74,2.48,1.06,6.06.28,8.93-.34l1.83-.38.17,0c1.87-.35,4.42-.83,5.79-2a4.7,4.7,0,0,0,.51-.49c1.93-2.13,2.85-6.27,2.58-8.89a7.85,7.85,0,0,0-3.31-5.58,3.38,3.38,0,0,0-3.19-.2l-.15.07a1.83,1.83,0,0,1-1,.26,2.12,2.12,0,0,1-1.37-.77l-.13-.13A5.52,5.52,0,0,0,153.4,80.8Zm10.79,16.89h0Z" fill="#231f20"></path><path d="M149.53,105.75,148,113.09s2.29,4.66,7.16,3.49,5.7-4.9,5.7-4.91l.48-7.87.3-4.85a5.39,5.39,0,0,0,.09-1.49c-.16-.5-.73-.88-1-1.29a12.42,12.42,0,0,1-1.15-2,16,16,0,0,1-1.42-4.32,7.65,7.65,0,0,1-5.13-1.6c-.55.91,1.07,1.83.94,2.89-1.76-.32-4-.94-5.24-2.26-.62-.08-3.1,4.21-3.49,5.92a18.47,18.47,0,0,0-.31,6.79C145.46,105.41,149.53,105.75,149.53,105.75Z" fill="#fff"></path><path d="M153.62,117.27c-4.09,0-6.05-3.92-6.08-4a.62.62,0,0,1,0-.33l1.43-6.82a5.49,5.49,0,0,1-4.55-4.45,18.93,18.93,0,0,1,.33-7c.25-1.15,2.75-6.46,4-6.31a.55.55,0,0,1,.3.16,8.14,8.14,0,0,0,4.21,2,4.43,4.43,0,0,0-.29-.46c-.39-.57-.88-1.28-.41-2a.53.53,0,0,1,.34-.24.58.58,0,0,1,.4.1,7.07,7.07,0,0,0,4.79,1.5.51.51,0,0,1,.52.41A15.62,15.62,0,0,0,160,94a12.16,12.16,0,0,0,1.1,1.88,4,4,0,0,0,.35.38,2.92,2.92,0,0,1,.77,1,3.13,3.13,0,0,1,0,1.29,3.77,3.77,0,0,0-.06.39l-.77,12.72s-.81,4.09-6.08,5.36A7.17,7.17,0,0,1,153.62,117.27Zm-5.1-4.26c.42.76,2.51,4,6.51,3.08,4.51-1.08,5.32-4.49,5.33-4.52l.77-12.65a3.29,3.29,0,0,1,.06-.48,3.67,3.67,0,0,0,.06-.83,2.21,2.21,0,0,0-.52-.65,5.12,5.12,0,0,1-.45-.49,12.81,12.81,0,0,1-1.2-2,16.56,16.56,0,0,1-1.38-4,7.72,7.72,0,0,1-4-1.05l.1.16a2.59,2.59,0,0,1,.64,1.73.5.5,0,0,1-.2.34.49.49,0,0,1-.39.09,10.52,10.52,0,0,1-5.23-2.13A18,18,0,0,0,145.68,95a18.18,18.18,0,0,0-.31,6.6c.52,3.34,4,3.69,4.2,3.7a.54.54,0,0,1,.36.21.49.49,0,0,1,.08.39Z" fill="#231f20"></path><path d="M148.72,109.61a5.26,5.26,0,0,0,4.7-1.41c2.15-2.07,2-3.81,2-3.81a8.06,8.06,0,0,1-5.87,1.36Z" fill="#231f20"></path><path d="M149.71,110.21a4.71,4.71,0,0,1-1.11-.12.5.5,0,0,1-.37-.58l.81-3.86a.48.48,0,0,1,.58-.38A7.66,7.66,0,0,0,155.1,104a.51.51,0,0,1,.8.36c0,.08.16,2-2.14,4.21A5.77,5.77,0,0,1,149.71,110.21Zm-.4-1a4.76,4.76,0,0,0,3.76-1.36,6.12,6.12,0,0,0,1.67-2.47,8.32,8.32,0,0,1-4.83.95Z" fill="#231f20"></path><path d="M153.48,93.74s-2.69,3.72-2.11,4.4,2.3.31,2.3.31" fill="#fff"></path><path d="M152.67,99.06a2.19,2.19,0,0,1-1.68-.6c-.56-.65.15-2.34,2.08-5a.51.51,0,0,1,.7-.11.49.49,0,0,1,.11.7c-1.19,1.65-2.17,3.45-2.09,3.85.21.23,1.17.21,1.77.08a.5.5,0,0,1,.6.38.52.52,0,0,1-.39.6A5.6,5.6,0,0,1,152.67,99.06Z" fill="#231f20"></path><ellipse cx="156.56" cy="93.58" rx="0.63" ry="0.89" transform="translate(-4.39 7.77) rotate(-2.81)" fill="#231f20"></ellipse><ellipse cx="150.59" cy="93.4" rx="0.89" ry="0.63" transform="translate(22.84 216.19) rotate(-75.67)" fill="#231f20"></ellipse><path d="M152,104.2a2.54,2.54,0,0,1-2-.83c-1.15-1.43-.64-3.71-.62-3.81a.5.5,0,0,1,.51-.39c5.87.28,5.89.31,6.08.54a.49.49,0,0,1,.1.41,6.07,6.07,0,0,1-1.06,2.52,3.83,3.83,0,0,1-3,1.56Zm-1.7-4a3.55,3.55,0,0,0,.48,2.54,1.49,1.49,0,0,0,1.25.47,2.84,2.84,0,0,0,2.19-1.17,4.59,4.59,0,0,0,.76-1.57C154,100.38,151.92,100.27,150.33,100.19Zm5.29-.17h0Zm0,0h0Z" fill="#231f20"></path><path d="M160.09,97.14c-.05-1.6,1.58-3.76,3.33-2.77a2.69,2.69,0,0,1,1.15,1.76c.77,3.32-1.81,4.44-3.56,5.22" fill="#fff"></path><path d="M161.05,101.83a.5.5,0,0,1-.47-.29.49.49,0,0,1,.23-.65c1.79-.79,3.94-1.76,3.27-4.64a2.23,2.23,0,0,0-.91-1.44,1.25,1.25,0,0,0-1.35,0,2.87,2.87,0,0,0-1.23,2.3.5.5,0,0,1-1,0A3.83,3.83,0,0,1,161.3,94a2.27,2.27,0,0,1,2.37,0A3.15,3.15,0,0,1,165.05,96c.87,3.69-2,5-3.78,5.76A.44.44,0,0,1,161.05,101.83Z" fill="#231f20"></path></g></svg>